HIERARCHY
ROOT Hips
{
	OFFSET 0.00000 0.00000 0.00000
	CHANNELS 6 Xposition Yposition Zposition Zrotation Yrotation Xrotation 
	JOINT LHipJoint
	{
		OFFSET 0 0 0
		CHANNELS 3 Zrotation Yrotation Xrotation
		JOINT LeftUpLeg
		{
			OFFSET 1.61328 -1.70571 0.84375
			CHANNELS 3 Zrotation Yrotation Xrotation
			JOINT LeftLeg
			{
				OFFSET 2.32400 -6.38513 0.00000
				CHANNELS 3 Zrotation Yrotation Xrotation
				JOINT LeftFoot
				{
					OFFSET 2.58843 -7.11166 0.00000
					CHANNELS 3 Zrotation Yrotation Xrotation
					JOINT LeftToeBase
					{
						OFFSET 0.17200 -0.47257 2.47970
						CHANNELS 3 Zrotation Yrotation Xrotation
						End Site
						{
							OFFSET 0.00000 -0.00000 1.26912
						}
					}
				}
			}
		}
	}
	JOINT RHipJoint
	{
		OFFSET 0 0 0
		CHANNELS 3 Zrotation Yrotation Xrotation
		JOINT RightUpLeg
		{
			OFFSET -1.49930 -1.70570 0.84375
			CHANNELS 3 Zrotation Yrotation Xrotation
			JOINT RightLeg
			{
				OFFSET -2.30458 -6.33178 0.00000
				CHANNELS 3 Zrotation Yrotation Xrotation
				JOINT RightFoot
				{
					OFFSET -2.62261 -7.20556 0.00000
					CHANNELS 3 Zrotation Yrotation Xrotation
					JOINT RightToeBase
					{
						OFFSET -0.18709 -0.51403 2.51340
						CHANNELS 3 Zrotation Yrotation Xrotation
						End Site
						{
							OFFSET -0.00000 -0.00000 1.28858
						}
					}
				}
			}
		}
	}
	JOINT LowerBack
	{
		OFFSET 0 0 0
		CHANNELS 3 Zrotation Yrotation Xrotation
		JOINT Spine
		{
			OFFSET -0.03798 2.19274 -0.19881
			CHANNELS 3 Zrotation Yrotation Xrotation
			JOINT Spine1
			{
				OFFSET -0.00024 2.19460 0.05248
				CHANNELS 3 Zrotation Yrotation Xrotation
				JOINT Neck
				{
					OFFSET 0 0 0
					CHANNELS 3 Zrotation Yrotation Xrotation
					JOINT Neck1
					{
						OFFSET -0.00746 1.82323 0.17286
						CHANNELS 3 Zrotation Yrotation Xrotation
						JOINT Head
						{
							OFFSET 0.11826 1.82121 -0.27841
							CHANNELS 3 Zrotation Yrotation Xrotation
							End Site
							{
								OFFSET 0.03496 1.85543 -0.11495
							}
						}
					}
				}
				JOINT LeftShoulder
				{
					OFFSET 0 0 0
					CHANNELS 3 Zrotation Yrotation Xrotation
					JOINT LeftArm
					{
						OFFSET 3.71926 0.78840 0.25473
						CHANNELS 3 Zrotation Yrotation Xrotation
						JOINT LeftForeArm
						{
							OFFSET 5.37587 -0.00000 0.00000
							CHANNELS 3 Zrotation Yrotation Xrotation
							JOINT LeftHand
							{
								OFFSET 3.35977 -0.00000 0.00000
								CHANNELS 3 Zrotation Yrotation Xrotation
								JOINT LeftFingerBase
								{
									OFFSET 0 0 0
									CHANNELS 3 Zrotation Yrotation Xrotation
									JOINT LeftHandIndex1
									{
										OFFSET 0.56186 -0.00000 0.00000
										CHANNELS 3 Zrotation Yrotation Xrotation
										End Site
										{
											OFFSET 0.45299 -0.00000 0.00000
										}
									}
								}
								JOINT LThumb
								{
									OFFSET 0 0 0
									CHANNELS 3 Zrotation Yrotation Xrotation
									End Site
									{
										OFFSET 0.45990 -0.00000 0.45990
									}
								}
							}
						}
					}
				}
				JOINT RightShoulder
				{
					OFFSET 0 0 0
					CHANNELS 3 Zrotation Yrotation Xrotation
					JOINT RightArm
					{
						OFFSET -3.65136 0.56074 0.01624
						CHANNELS 3 Zrotation Yrotation Xrotation
						JOINT RightForeArm
						{
							OFFSET -5.22819 -0.00000 0.00000
							CHANNELS 3 Zrotation Yrotation Xrotation
							JOINT RightHand
							{
								OFFSET -3.40764 -0.00000 0.00000
								CHANNELS 3 Zrotation Yrotation Xrotation
								JOINT RightFingerBase
								{
									OFFSET 0 0 0
									CHANNELS 3 Zrotation Yrotation Xrotation
									JOINT RightHandIndex1
									{
										OFFSET -0.58325 -0.00000 0.00000
										CHANNELS 3 Zrotation Yrotation Xrotation
										End Site
										{
											OFFSET -0.47024 -0.00000 0.00000
										}
									}
								}
								JOINT RThumb
								{
									OFFSET 0 0 0
									CHANNELS 3 Zrotation Yrotation Xrotation
									End Site
									{
										OFFSET -0.47742 -0.00000 0.47742
									}
								}
							}
						}
					}
				}
			}
		}
	}
}
MOTION
Frames: 10
Frame Time: .0083333
49.5570 16.8226 -7.6990 -19.8252 -85.4816 21.2928 0.0000 0.0000 0.0000 -17.9914 3.0471 -3.8485 0.8609 5.9168 16.5431 0.5344 1.5498 -14.4567 0.1632 -2.6024 -7.1737 0.0000 0.0000 0.0000 17.7414 4.8862 -8.3904 -2.4526 -9.7512 28.1749 -1.6483 -1.5051 -24.8495 -0.8676 -5.9390 16.6075 -1.5283 -0.2647 -3.2614 0.0603 -0.3323 5.5276 0.8824 -0.2880 7.6165 -3.8526 -3.2568 -10.2661 8.9232 -5.1355 11.7816 3.0232 -2.1073 5.5747 -0.0000 0.0000 0.0000 -87.3919 -4.3217 23.3137 14.9028 -24.0105 -3.1863 -0.0000 0.0000 -9.2389 19.3187 16.3628 5.6403 -7.1250 0.0000 -0.0000 -8.0842 47.0990 -0.4214 -0.0000 0.0000 0.0000 87.9462 1.1921 18.7220 -16.1203 25.6835 -3.6980 0.0000 -0.0000 -1.5981 -19.5744 3.3384 -1.1862 7.1250 -0.0000 -0.0000 5.3522 -26.4300 2.4204
49.5575 16.8206 -7.7027 -19.0565 -85.3015 20.5204 0.0000 0.0000 0.0000 -17.9581 3.0365 -3.9638 0.8758 5.9665 16.6872 0.5368 1.3795 -14.4081 0.1688 -2.6465 -7.2961 0.0000 0.0000 0.0000 17.7271 4.6702 -8.3798 -2.4413 -9.7304 28.1081 -1.6534 -1.3307 -24.8181 -0.8980 -6.0397 16.8996 -1.5276 -0.2811 -3.2518 0.0480 -0.3539 5.5379 0.8670 -0.2984 7.6225 -3.8635 -3.2724 -10.2067 8.9614 -5.1583 11.7346 3.0357 -2.1190 5.5528 0.0000 0.0000 0.0000 -87.3779 -4.2540 23.3620 15.0395 -24.2012 -3.2421 -0.0000 0.0000 -9.3280 19.3314 16.3918 5.6538 -7.1250 0.0000 -0.0000 -8.0799 47.1308 -0.4275 0.0000 0.0000 0.0000 87.9583 1.1210 18.8054 -16.1879 25.7748 -3.7273 0.0000 -0.0000 -1.6300 -19.5198 3.2825 -1.1629 7.1250 -0.0000 -0.0000 5.3956 -26.4901 2.4325
49.5578 16.8186 -7.7062 -18.4606 -85.1111 19.9229 0.0000 0.0000 0.0000 -17.9115 3.0274 -4.1050 0.8943 6.0275 16.8641 0.5395 1.2001 -14.3608 0.1759 -2.7013 -7.4483 0.0000 0.0000 0.0000 17.7243 4.4462 -8.3654 -2.4279 -9.7057 28.0288 -1.6574 -1.1507 -24.7790 -0.9313 -6.1474 17.2126 -1.5152 -0.2993 -3.2472 0.0406 -0.3789 5.5480 0.8497 -0.3099 7.6312 -3.8778 -3.2872 -10.1390 9.0029 -5.1799 11.6865 3.0501 -2.1303 5.5292 -0.0000 0.0000 0.0000 -87.3710 -4.1892 23.3886 15.1718 -24.3849 -3.2965 -0.0000 0.0000 -9.4050 19.3432 16.4073 5.6628 -7.1250 0.0000 -0.0000 -8.0728 47.1484 -0.4307 -0.0000 0.0000 0.0000 87.9614 1.0561 18.8906 -16.2515 25.8604 -3.7550 0.0000 -0.0000 -1.6511 -19.4650 3.2173 -1.1364 7.1250 -0.0000 -0.0000 5.4395 -26.5600 2.4436
49.5578 16.8165 -7.7093 -18.0328 -84.9096 19.4983 0.0000 0.0000 0.0000 -17.8512 3.0128 -4.2743 0.9168 6.1009 17.0774 0.5427 1.0138 -14.3202 0.1833 -2.7574 -7.6040 0.0000 0.0000 0.0000 17.7345 4.2139 -8.3510 -2.4128 -9.6775 27.9387 -1.6609 -0.9645 -24.7344 -0.9673 -6.2618 17.5460 -1.4907 -0.3179 -3.2515 0.0387 -0.4055 5.5571 0.8314 -0.3216 7.6439 -3.8947 -3.3021 -10.0581 9.0467 -5.2013 11.6322 3.0657 -2.1420 5.5016 0.0000 -0.0000 0.0000 -87.3717 -4.1309 23.3976 15.2965 -24.5576 -3.3482 -0.0000 0.0000 -9.4713 19.3529 16.4097 5.6666 -7.1250 0.0000 -0.0000 -8.0643 47.1523 -0.4310 0.0000 -0.0000 0.0000 87.9544 0.9941 18.9762 -16.3115 25.9412 -3.7812 0.0000 -0.0000 -1.6613 -19.4184 3.1560 -1.1118 7.1250 -0.0000 -0.0000 5.4772 -26.6255 2.4522
49.5575 16.8142 -7.7119 -17.7541 -84.6970 19.2270 0.0000 0.0000 0.0000 -17.7797 2.9758 -4.4661 0.9439 6.1878 17.3302 0.5468 0.8344 -14.2957 0.1914 -2.8175 -7.7709 0.0000 0.0000 0.0000 17.7570 3.9729 -8.3360 -2.3960 -9.6462 27.8386 -1.6634 -0.7727 -24.6823 -1.0061 -6.3825 17.8982 -1.4540 -0.3377 -3.2634 0.0434 -0.4345 5.5638 0.8128 -0.3340 7.6585 -3.9194 -3.3171 -9.9671 9.0985 -5.2238 11.5853 3.0852 -2.1542 5.4751 0.0000 0.0000 0.0000 -87.3822 -4.0729 23.3908 15.4161 -24.7225 -3.3980 -0.0000 0.0000 -9.5311 19.3602 16.3964 5.6645 -7.1250 0.0000 -0.0000 -8.0540 47.1396 -0.4279 0.0000 0.0000 0.0000 87.9337 0.9338 19.0660 -16.3662 26.0146 -3.8051 0.0000 -0.0000 -1.6650 -19.3852 3.1068 -1.0925 7.1250 -0.0000 -0.0000 5.5042 -26.6780 2.4576
49.5568 16.8115 -7.7139 -17.6322 -84.4765 19.1154 0.0000 0.0000 0.0000 -17.6968 2.9117 -4.6760 0.9759 6.2886 17.6242 0.5523 0.6637 -14.2947 0.1995 -2.8758 -7.9333 0.0000 0.0000 0.0000 17.7923 3.7241 -8.3200 -2.3779 -9.6124 27.7303 -1.6651 -0.5703 -24.6218 -1.0470 -6.5070 18.2627 -1.4012 -0.3553 -3.2817 0.0534 -0.4620 5.5668 0.7908 -0.3448 7.6727 -3.9459 -3.3334 -9.8612 9.1525 -5.2490 11.5437 3.1058 -2.1681 5.4479 -0.0000 -0.0000 0.0000 -87.3982 -4.0142 23.3785 15.5288 -24.8777 -3.4454 -0.0000 0.0000 -9.5894 19.3660 16.3806 5.6610 -7.1250 0.0000 -0.0000 -8.0445 47.1240 -0.4243 -0.0000 -0.0000 0.0000 87.9012 0.8697 19.1571 -16.4171 26.0829 -3.8275 0.0000 -0.0000 -1.6670 -19.3671 3.0712 -1.0789 7.1250 -0.0000 -0.0000 5.5193 -26.7159 2.4595
49.5556 16.8084 -7.7150 -17.6733 -84.2529 19.1684 0.0000 0.0000 0.0000 -17.6025 2.8204 -4.9008 1.0129 6.4033 17.9592 0.5594 0.5063 -14.3220 0.2067 -2.9269 -8.0754 0.0000 0.0000 0.0000 17.8407 3.4709 -8.3012 -2.3586 -9.5762 27.6150 -1.6660 -0.3545 -24.5523 -1.0902 -6.6356 18.6401 -1.3308 -0.3695 -3.3087 0.0684 -0.4862 5.5697 0.7646 -0.3531 7.6915 -3.9767 -3.3517 -9.7536 9.2143 -5.2790 11.5162 3.1291 -2.1839 5.4255 0.0000 -0.0000 0.0000 -87.4200 -3.9603 23.3604 15.6347 -25.0228 -3.4900 -0.0000 0.0000 -9.6478 19.3747 16.3672 5.6592 -7.1250 0.0000 -0.0000 -8.0329 47.1113 -0.4211 0.0000 -0.0000 0.0000 87.8557 0.8078 19.2527 -16.4643 26.1462 -3.8483 0.0000 -0.0000 -1.6712 -19.3562 3.0596 -1.0742 7.1250 -0.0000 -0.0000 5.5281 -26.7283 2.4618
49.5538 16.8047 -7.7150 -17.8810 -84.0349 19.3883 0.0000 0.0000 0.0000 -17.4977 2.7123 -5.1401 1.0549 6.5306 18.3320 0.5682 0.3622 -14.3775 0.2141 -2.9787 -8.2194 0.0000 0.0000 0.0000 17.9009 3.2122 -8.2833 -2.3387 -9.5385 27.4948 -1.6638 -0.1436 -24.4645 -1.1259 -6.7398 18.9467 -1.2411 -0.3763 -3.3459 0.0874 -0.5021 5.5734 0.7323 -0.3563 7.7169 -4.0008 -3.3739 -9.6391 9.2700 -5.3149 11.4930 3.1491 -2.2029 5.4034 0.0000 -0.0000 0.0000 -87.4449 -3.9103 23.3427 15.7347 -25.1596 -3.5324 -0.0000 0.0000 -9.7107 19.3814 16.3586 5.6585 -7.1250 0.0000 -0.0000 -8.0245 47.1032 -0.4191 0.0000 -0.0000 0.0000 87.7980 0.7511 19.3492 -16.5080 26.2047 -3.8676 0.0000 -0.0000 -1.6778 -19.3492 3.0637 -1.0752 7.1250 -0.0000 -0.0000 5.5333 -26.7240 2.4647
49.5515 16.8005 -7.7140 -18.2649 -83.8295 19.7849 0.0000 0.0000 0.0000 -17.3810 2.6007 -5.3940 1.1013 6.6682 18.7360 0.5785 0.2314 -14.4566 0.2226 -3.0371 -8.3821 0.0000 0.0000 0.0000 17.9743 2.9552 -8.2684 -2.3185 -9.5001 27.3727 -1.6592 0.0610 -24.3621 -1.1536 -6.8194 19.1814 -1.1320 -0.3733 -3.3909 0.1098 -0.5065 5.5795 0.6939 -0.3528 7.7488 -4.0157 -3.3994 -9.5334 9.3222 -5.3574 11.4844 3.1658 -2.2245 5.3875 0.0000 -0.0000 0.0000 -87.4712 -3.8677 23.3249 15.8293 -25.2886 -3.5727 -0.0000 0.0000 -9.7790 19.3906 16.3527 5.6594 -7.1250 0.0000 -0.0000 -8.0143 47.0984 -0.4176 0.0000 -0.0000 0.0000 87.7280 0.7053 19.4510 -16.5496 26.2601 -3.8859 0.0000 -0.0000 -1.6976 -19.3392 3.0788 -1.0799 7.1250 -0.0000 -0.0000 5.5403 -26.7083 2.4699
49.5487 16.7961 -7.7120 -18.7878 -83.6372 20.3205 0.0000 0.0000 0.0000 -17.2541 2.4949 -5.6598 1.1513 6.8127 19.1618 0.5899 0.1110 -14.5547 0.2318 -3.0989 -8.5541 0.0000 0.0000 0.0000 18.0588 2.7019 -8.2581 -2.2987 -9.4624 27.2528 -1.6525 0.2572 -24.2487 -1.1734 -6.8756 19.3473 -1.0063 -0.3613 -3.4427 0.1345 -0.5003 5.5883 0.6497 -0.3433 7.7873 -4.0266 -3.4279 -9.4401 9.3741 -5.4059 11.4915 3.1812 -2.2482 5.3789 0.0000 0.0000 0.0000 -87.4978 -3.8267 23.3145 15.9252 -25.4191 -3.6138 -0.0000 0.0000 -9.8658 19.4089 16.3485 5.6637 -7.1250 0.0000 -0.0000 -7.9960 47.0965 -0.4162 0.0000 0.0000 0.0000 87.6466 0.6725 19.5592 -16.5905 26.3147 -3.9041 0.0000 -0.0000 -1.7223 -19.3211 3.0958 -1.0847 7.1250 -0.0000 -0.0000 5.5535 -26.6908 2.4781
